# xmcd
#
# Track frame offsets: 
#        150
#        22557
#        40655
#        59342
#        78015
#        96245
#        111147
#        131630
#        151682
#        166065
#        183722
#
# Disc length: 2669 seconds
#
# Revision: 0
# Processed by: cddbd v1.5.1PL0 Copyright (c) Steve Scherf et al.
# Submitted via: ExactAudioCopy v0.95a5
#
DISCID=760a6b0b
DTITLE=Marc Herman - Neighborhood Dog
DYEAR=1998
DGENRE=Blues
TTITLE0=Love, Love, Love
TTITLE1=ADjusted
TTITLE2=Clown Car
TTITLE3=Why So Blue
TTITLE4=To Build A Boat
TTITLE5=Foolish One
TTITLE6=Eucalyptus Tree
TTITLE7=Hangman's Bluff
TTITLE8=Shady Side of Me
TTITLE9=Josephine
TTITLE10=Don't Hang Your Heart Up
EXTD=
EXTT0=
EXTT1=
EXTT2=
EXTT3=
EXTT4=
EXTT5=
EXTT6=
EXTT7=
EXTT8=
EXTT9=
EXTT10=
PLAYORDER=
